<svg xmlns="http://www.w3.org/2000/svg" xmlns:xlink="http://www.w3.org/1999/xlink" version="1.1" width="1000" height="1000" viewBox="0 0 1000 1000" xml:space="preserve">
<desc>Created with Fabric.js 3.5.0</desc>
<defs>
</defs>
<rect x="0" y="0" width="100%" height="100%" fill="#ffffff"/>
<g transform="matrix(-37.8788 0 0 37.8788 500.0001 500.0001)" id="930016">
<path style="stroke: none; stroke-width: 1; stroke-dasharray: none; stroke-linecap: butt; stroke-dashoffset: 0; stroke-linejoin: miter; stroke-miterlimit: 4; is-custom-font: none; font-file-url: none; fill: rgb(0,0,0); fill-rule: nonzero; opacity: 0.8;" vector-effect="non-scaling-stroke" transform=" translate(-16.5001, -15)" d="M 19.533 15 l -9.1 -9.45 c -0.577 -0.6 -0.577 -1.5 0 -2.1 c 0.578 -0.6 1.445 -0.6 2.023 0 l 10.11 10.5 c 0.29 0.3 0.434 0.75 0.434 1.05 c 0 0.45 -0.144 0.75 -0.433 1.05 l -10.111 10.5 c -0.29 0.3 -0.578 0.45 -1.012 0.45 c -0.433 0 -0.722 -0.15 -1.01 -0.45 c -0.578 -0.6 -0.578 -1.5 0 -2.1 l 9.1 -9.45 z" stroke-linecap="round"/>
</g>
</svg>